<svg width="32" height="32" viewBox="0 0 32 32" fill="none" xmlns="http://www.w3.org/2000/svg">
<path d="M27.3137 4.68629C33.5621 10.9347 33.5621 21.0653 27.3137 27.3137C21.0653 33.5621 10.9347 33.5621 4.68629 27.3137C-1.5621 21.0653 -1.5621 10.9347 4.68629 4.68629C10.9347 -1.5621 21.0653 -1.5621 27.3137 4.68629Z" fill="#5C77F2"/>
<path d="M23.828 23.868C19.4867 28.2093 5.34879 26.6648 5.34879 26.6648C5.34879 26.6648 3.80432 12.5269 8.1456 8.18562C12.4869 3.84433 26.52 5.4936 26.52 5.4936C26.52 5.4936 28.1693 19.5267 23.828 23.868Z" fill="white"/>
<path d="M19.0989 19.2793C17.2429 21.1353 14.2338 21.1353 12.3778 19.2793C10.5219 17.4234 10.5219 14.4143 12.3778 12.5583C13.8776 11.0585 17.5984 11.7266 18.9713 12.0383C19.296 12.112 19.5451 12.3612 19.6188 12.6859C19.9305 14.0587 20.5987 17.7795 19.0989 19.2793Z" fill="#5C77F2"/>
</svg>
