<svg width="24" height="24" viewBox="0 0 24 24" fill="#ffffff" xmlns="http://www.w3.org/2000/svg">
<path d="M2.88163 22.5659C2.8649 22.5524 2.77285 22.5145 2.67801 22.4794C2.58038 22.4469 2.49391 22.4036 2.48554 22.382C2.47717 22.3603 2.55527 22.2711 2.67522 22.1656C3.02947 21.8572 3.31399 21.5569 3.46741 21.3324C3.5483 21.2133 3.69335 21.0321 3.78819 20.9266C4.32096 20.3504 5.02668 19.3116 5.61524 18.2376C5.9946 17.5451 6.0197 17.472 6.05317 16.9499C6.09502 16.2844 6.06433 15.4188 5.9667 14.5152C5.91928 14.0851 5.88023 13.7199 5.88023 13.7091C5.88023 13.6739 5.80213 13.7036 5.18567 13.9688C4.78958 14.1392 4.58316 14.2447 4.51064 14.3096C4.45206 14.3637 4.29307 14.4638 4.15639 14.5369C3.85792 14.6911 3.77982 14.6965 3.30004 14.5964C2.84816 14.5044 2.6529 14.3989 2.19265 14.0066C2.08665 13.9174 2.00297 13.8308 2.00297 13.8146C2.00297 13.7848 1.81329 13.5062 1.54551 13.141L1.41162 12.957L1.45904 12.7839C1.49809 12.6432 1.50646 12.5377 1.4953 12.2482C1.48415 12.0102 1.48972 11.8668 1.51204 11.8343C1.52878 11.8073 1.53714 11.718 1.53157 11.6423L1.5232 11.5016L1.68777 11.4286C1.77982 11.3853 1.89698 11.3555 1.96113 11.3582C2.03923 11.3582 2.09502 11.3393 2.14244 11.2987C2.34328 11.1229 2.49112 11.0796 2.64453 11.1553C2.71148 11.1878 2.71427 11.1959 2.70311 11.4475C2.69195 11.7451 2.69474 11.7478 2.93742 11.7965C3.17173 11.8425 3.47298 11.8154 4.27075 11.6747C5.00994 11.5449 6.02807 11.3907 6.14243 11.3907C6.19543 11.3907 6.24006 11.3555 6.32375 11.2446C6.38511 11.1662 6.49948 11.0444 6.58316 10.9741L6.731 10.8442L6.98204 10.8632C7.42835 10.8929 7.94996 10.9606 8.11733 11.012C8.27632 11.0607 8.29306 11.0607 8.59431 11.012C8.76726 10.9849 9.03783 10.9497 9.19961 10.9335C9.93601 10.8578 10.0364 10.8415 10.0671 10.8064C10.0866 10.782 10.1145 10.7766 10.1452 10.7955C10.1787 10.8118 10.215 10.8064 10.2624 10.782C10.5274 10.6332 10.5664 10.6224 10.9848 10.617C11.2191 10.6143 11.4785 10.5954 11.6013 10.571C12.1536 10.4601 13.7993 10.2626 14.5748 10.2112L14.8593 10.1923L14.8202 10.1165C14.7645 10.0164 14.7672 9.98398 14.8286 9.98939C14.8537 9.99209 14.9569 9.98939 15.0573 9.98939L15.2387 9.98398L15.3865 9.78649C15.4674 9.68099 15.5511 9.56737 15.5734 9.53761C15.6096 9.48621 15.618 9.48892 15.777 9.64041C15.8691 9.72968 15.9723 9.85954 16.0085 9.93258L16.0727 10.0651L16.4771 10.0516C17.0741 10.0327 18.6696 10.0029 18.8649 10.0083C18.9569 10.011 19.1745 10.03 19.3474 10.0516C19.5204 10.0732 19.7184 10.0922 19.7882 10.0922C19.9388 10.0922 19.9416 10.1057 19.6682 9.74862C19.4785 9.50245 19.2275 9.28332 19.0518 9.21028C18.9988 9.19135 18.9207 9.14265 18.876 9.10748C18.8314 9.06961 18.611 8.98304 18.3628 8.90189C18.1173 8.82344 17.8942 8.73416 17.8495 8.69629C17.8049 8.66112 17.7519 8.63137 17.7324 8.63137C17.7101 8.63137 17.5762 8.60702 17.4367 8.57456C17.2219 8.52586 17.1773 8.50693 17.1773 8.46635C17.1773 8.37167 17.4255 8.41224 17.9946 8.60161C18.2345 8.68006 18.3209 8.699 18.3209 8.67194C18.3209 8.6476 18.1731 8.58808 17.9165 8.50422C17.6766 8.42847 17.512 8.36084 17.512 8.34191C17.512 8.32297 17.5343 8.30674 17.5594 8.30674C17.6292 8.30674 17.5817 8.27698 17.4785 8.25534C17.4144 8.24181 17.3893 8.22288 17.3949 8.19042C17.4004 8.16607 17.3893 8.14443 17.3697 8.14443C17.353 8.14443 17.3446 8.12549 17.3558 8.10385C17.3642 8.08221 17.3614 8.06327 17.3474 8.06327C17.3112 8.06327 17.2191 8.17418 17.1103 8.35002C17.0545 8.442 16.9932 8.52316 16.9737 8.52857C16.9569 8.53668 16.8537 8.53127 16.7449 8.52045C16.6389 8.50963 16.5218 8.49881 16.4883 8.49881C16.4437 8.49611 16.4241 8.47987 16.4241 8.44741C16.4241 8.40142 16.3823 8.39331 16.0587 8.36355C15.7937 8.3392 15.685 8.3365 15.6626 8.35814C15.6208 8.39872 15.5873 8.39601 15.5873 8.35002C15.5873 8.32297 15.5427 8.30674 15.4423 8.29592C15.2526 8.27698 14.519 8.22017 14.3684 8.21206C14.307 8.20665 14.24 8.19583 14.2233 8.18771C14.1815 8.16066 14.1313 8.19583 14.148 8.23911C14.1536 8.25805 14.1424 8.28239 14.1201 8.29051C14.0587 8.31486 14.0587 8.31486 14.0476 8.23099C14.0392 8.15795 14.0364 8.15795 13.8105 8.14984C13.6626 8.14443 13.579 8.15254 13.579 8.17148C13.579 8.18501 13.6013 8.19853 13.6292 8.19853C13.6543 8.19853 13.7212 8.22558 13.7742 8.25805C13.8272 8.2878 13.9165 8.31756 13.9695 8.32297C14.0225 8.32568 14.0838 8.32838 14.1034 8.33109C14.1201 8.33379 14.1368 8.34732 14.1368 8.36355C14.1368 8.37978 14.0922 8.3906 14.0336 8.3879C13.9751 8.38519 13.8523 8.38519 13.7603 8.3879L13.5929 8.39331L13.7045 8.42036C13.7686 8.43659 13.8412 8.47987 13.8802 8.52316L13.9416 8.60161L13.7826 8.63137C13.6933 8.6503 13.6041 8.67194 13.5818 8.68006C13.5483 8.69088 13.5455 8.66653 13.5622 8.53939L13.579 8.38249L13.4758 8.40142C13.42 8.41224 13.3447 8.442 13.3084 8.46905C13.2554 8.50693 13.2024 8.51504 13.0434 8.50963L12.8426 8.50152L12.8175 8.41224C12.7812 8.27428 12.7589 8.26887 12.6752 8.37437C12.6334 8.42577 12.5804 8.46905 12.558 8.46905C12.5274 8.46905 12.5218 8.48528 12.5329 8.52316C12.5441 8.55833 12.5385 8.57726 12.5134 8.57726C12.4939 8.57997 12.0532 8.58538 11.5343 8.59079C11.0155 8.5962 10.5246 8.61513 10.4465 8.63137C10.3656 8.64489 10.2652 8.66383 10.2177 8.66924C10.1731 8.67194 10.2177 8.68006 10.3209 8.68277C10.4214 8.68277 10.5246 8.69359 10.5497 8.7017C10.6724 8.74769 10.5525 8.76663 10.1368 8.76663C9.67381 8.76663 9.58455 8.78556 9.68776 8.8586C9.7296 8.88836 9.71286 8.89648 9.56223 8.91C9.4646 8.92082 9.32792 8.92894 9.25819 8.92894C9.15219 8.93164 9.13825 8.93435 9.18288 8.9614C9.21356 8.97763 9.29724 8.98304 9.38371 8.97493C9.53434 8.9587 9.57897 8.98575 9.48692 9.03444C9.45903 9.04797 9.30003 9.0642 9.12988 9.07232C8.82583 9.08855 8.50784 9.15618 8.4409 9.2211C8.42416 9.23733 8.33769 9.25357 8.25122 9.25357C8.16754 9.25357 8.05317 9.26709 8.00017 9.28062C7.94717 9.29685 7.75192 9.3212 7.56782 9.33743C7.34745 9.35366 7.19404 9.38071 7.12151 9.41588C7.0183 9.46457 6.95415 9.46728 6.18707 9.45375C5.3893 9.44293 5.06852 9.42129 4.83421 9.36448C4.77284 9.34825 4.60269 9.31038 4.45764 9.28062C4.03644 9.18864 3.28052 8.78827 2.97647 8.49611C2.68916 8.22288 2.6529 8.13361 2.51622 7.37344C2.45207 7.00824 2.44649 6.91896 2.45764 6.48072C2.47159 5.92344 2.50785 5.76113 2.71148 5.34182C3.13268 4.48156 3.7575 4.0866 4.41301 4.27056C4.70032 4.35171 5.01273 4.41123 5.13825 4.41123C5.33909 4.41123 5.74076 4.47074 5.76866 4.50861C5.82723 4.57354 5.70729 4.59518 5.19683 4.606C4.63616 4.62223 4.50506 4.64388 4.21775 4.77914C4.00855 4.87652 3.89139 5.00096 3.79934 5.21468L3.75471 5.31747L3.88024 5.42568C4.12012 5.63399 4.53574 5.83688 4.98763 5.96132C5.11873 5.99919 5.50645 6.06682 5.85234 6.11281C6.19822 6.1588 6.50506 6.2102 6.53295 6.22643C6.56363 6.24266 6.61942 6.2616 6.65847 6.26701C6.69752 6.27242 6.85373 6.29135 7.00436 6.31029C7.2833 6.34275 7.39487 6.40497 7.12988 6.37792C7.00994 6.3671 6.9932 6.3698 7.0462 6.39145C7.09083 6.41309 7.16335 6.41309 7.30003 6.39415C7.49529 6.36439 7.63755 6.37521 7.63755 6.41579C7.63755 6.42932 7.61802 6.44014 7.59013 6.44014C7.56503 6.44014 7.55108 6.44555 7.55945 6.45367C7.56782 6.46449 7.69334 6.48072 7.8356 6.49695C8.56084 6.56999 10.3042 6.73771 10.3405 6.73771C10.3656 6.73771 10.4046 6.75124 10.4269 6.76477C10.4632 6.78911 10.4632 6.79723 10.4186 6.82969C10.3767 6.86215 10.3851 6.86756 10.5162 6.89462C10.6389 6.91626 10.6668 6.91355 10.6947 6.87839C10.7198 6.84322 10.7979 6.8351 11.1327 6.8351C11.526 6.8324 11.5399 6.8351 11.5678 6.89191C11.5929 6.94602 11.5845 6.95143 11.4562 6.97848C11.3781 6.99471 11.2944 7.01094 11.2693 7.01094C11.1076 7.02447 12.0113 7.11374 12.3182 7.11644C12.4465 7.11644 12.717 7.14079 12.9179 7.17325C13.2303 7.22195 13.3977 7.23006 14.0113 7.22736C14.4102 7.22465 14.9011 7.23547 15.0992 7.25441C15.3502 7.27605 15.5092 7.27605 15.6152 7.25712C15.7073 7.24088 15.7742 7.23818 15.7854 7.25441C15.7937 7.26794 15.9444 7.3031 16.1201 7.33557C16.2958 7.36532 16.5134 7.41402 16.6055 7.44107C16.7896 7.49788 17.3502 7.58986 17.7658 7.62773C17.9109 7.64396 18.1591 7.68995 18.3209 7.73323C18.4827 7.77922 18.7087 7.83333 18.823 7.85497C19.1856 7.92801 19.8439 8.17148 19.8969 8.24993C19.9053 8.26616 20.0029 8.32297 20.1145 8.37978C20.6306 8.64219 20.9402 9.16159 21.0239 9.90282C21.0406 10.0597 21.0406 10.1436 21.0211 10.1679C20.982 10.2112 20.9792 10.2112 21.2024 10.2626C21.4255 10.314 21.6515 10.433 21.6292 10.4871C21.6208 10.5088 21.6068 10.5413 21.5985 10.5602C21.5734 10.6143 21.7603 10.8064 21.8802 10.8469C21.9416 10.8686 22.0308 10.9119 22.0782 10.9416C22.1591 10.9903 22.1703 11.012 22.1703 11.1175C22.1703 11.2121 22.1954 11.2744 22.2819 11.4042C22.3432 11.4935 22.4353 11.6098 22.4911 11.6612C22.5999 11.7613 22.6138 11.8452 22.5497 11.975C22.5273 12.0183 22.4743 12.2293 22.4353 12.4457C22.3516 12.8894 22.3349 12.9191 22.081 13.0436C21.922 13.122 21.9053 13.1383 21.7519 13.3655C21.6236 13.5522 21.6459 13.6252 21.8663 13.774C22.0141 13.8741 21.8467 13.8551 21.6041 13.7442C21.4785 13.6874 21.3837 13.7036 21.2247 13.8092C21.1131 13.8849 21.0629 13.8957 20.7979 13.9201L20.6138 13.9336L20.2596 13.7036C20.0531 13.5684 19.8774 13.4737 19.8356 13.4737C19.7993 13.4737 19.5957 13.3817 19.3865 13.2654C19.1773 13.1518 18.9597 13.0382 18.9067 13.0111C18.823 12.9705 17.3865 12.581 17.3195 12.581C17.3056 12.581 17.3642 12.7487 17.4479 12.9543C17.6933 13.5576 17.8495 14.1013 17.9304 14.6505C18.042 15.4161 18.2205 16.398 18.2679 16.5414C18.4158 16.9634 18.6668 17.353 19.3809 18.2484C20.0531 19.0951 20.8537 20.1448 20.9151 20.2638C21.0099 20.4423 21.194 21.1295 21.194 21.2999C21.194 21.3324 21.1577 21.3648 21.0852 21.3919C20.9709 21.4352 20.943 21.492 20.943 21.6813C20.943 21.8031 20.8202 21.9735 20.5608 22.217C20.3683 22.3982 20.3237 22.4253 20.2038 22.4442C19.989 22.4794 19.6041 22.4713 19.4646 22.4307C19.1633 22.3441 19.1466 22.3333 19.0936 22.2251C19.0629 22.1656 18.9932 22.0628 18.9374 21.9951C18.8816 21.9275 18.7784 21.795 18.7059 21.6976C18.5301 21.4568 18.3516 21.3026 18.1313 21.2052C17.9472 21.1241 17.6487 20.9374 17.3419 20.7075C17.1075 20.5343 16.9262 20.326 16.7868 20.0744C16.717 19.95 16.5943 19.7552 16.5134 19.6443C16.3126 19.363 16.2149 19.1574 16.1257 18.8409C16.0559 18.592 16.0504 18.5298 16.0448 17.9644C16.0392 17.6289 16.0253 16.747 16.0113 16.0031C15.9806 14.5801 15.9778 14.5396 15.8272 13.9742C15.7547 13.6982 15.3251 12.3429 15.3028 12.324C15.2972 12.3159 15.1327 12.2969 14.9402 12.2807C14.6389 12.2537 14.5413 12.2564 14.2568 12.2969C14.0169 12.3321 13.8523 12.3375 13.6431 12.324C13.4144 12.3105 13.3558 12.3132 13.3558 12.3429C13.3558 12.4674 13.459 12.9002 13.5678 13.2329C13.6989 13.6333 14.1341 15.6379 14.2484 16.3575C14.3182 16.7984 14.3237 17.5045 14.2624 18.0888C14.2122 18.5622 14.1564 18.8003 14.0002 19.1682C13.8997 19.409 13.8663 19.4576 13.7045 19.6037C13.5204 19.7715 13.4674 19.858 13.4674 19.9933C13.4674 20.0853 13.2582 20.372 13.141 20.4396C13.0992 20.464 13.0183 20.5506 12.9653 20.6344C12.9123 20.7156 12.8426 20.794 12.8147 20.8103C12.7868 20.8265 12.7087 20.886 12.6445 20.9428C12.4855 21.0835 12.3516 21.1322 12.0838 21.1511C11.671 21.1755 11.6431 21.1592 11.1355 20.6723C10.8565 20.4045 10.6055 20.1935 10.4632 20.1015C10.2847 19.9879 10.2233 19.9284 10.1926 19.8526C10.1396 19.7309 9.81607 19.4549 9.59571 19.3467C9.50087 19.3007 9.41997 19.2412 9.40324 19.2006C9.3865 19.1655 9.30003 19.0816 9.21077 19.0167C9.12151 18.9518 9.02667 18.8571 8.99878 18.8057C8.96809 18.7543 8.91509 18.6894 8.87883 18.6623C8.84257 18.6353 8.78399 18.5622 8.75052 18.5054C8.71426 18.4459 8.65568 18.3783 8.61942 18.3539C8.56363 18.3188 8.55526 18.2944 8.56642 18.2214C8.57479 18.1646 8.56642 18.1104 8.54131 18.0753C8.50226 18.0239 8.50505 18.0185 8.55526 18.0185C8.58873 18.0185 8.61384 18.0104 8.61384 18.0022C8.61384 17.9941 8.50784 17.8616 8.37674 17.7074C8.24564 17.5532 8.13964 17.4206 8.13964 17.4125C8.13964 17.4044 8.31258 17.4801 8.52458 17.5829C8.73378 17.683 9.14661 17.8589 9.43671 17.9725C9.7296 18.0861 10.1173 18.2403 10.3014 18.3187C10.6724 18.4784 10.7979 18.4946 10.9207 18.408C11.0908 18.289 11.0992 18.243 11.1243 17.2313C11.1522 16.2141 11.1745 15.9246 11.2833 15.0022C11.3474 14.4638 11.3558 14.2663 11.3558 13.5359C11.3586 13.0706 11.3502 12.6838 11.3419 12.6757C11.3196 12.654 10.6529 12.7162 10.4576 12.7595C10.3572 12.7812 10.1647 12.8353 10.0281 12.8813C9.89138 12.9245 9.62639 12.9895 9.4395 13.0273C9.2554 13.0625 9.01551 13.1112 8.90673 13.1328C8.80073 13.1545 8.466 13.1978 8.16754 13.2329L7.62639 13.2925L7.51203 13.3953C7.45066 13.4494 7.32235 13.5386 7.22472 13.5954C7.03783 13.7009 7.01552 13.7307 6.97088 13.9552C6.87605 14.407 6.93183 14.9832 7.12151 15.5973C7.23588 15.9544 7.28051 16.0518 7.46461 16.3277C7.7826 16.8065 7.88302 17.1257 7.90812 17.7344C7.92207 18.0807 7.92765 18.124 8.00017 18.2484C8.04201 18.3242 8.08385 18.4161 8.09222 18.454C8.11733 18.546 8.0197 18.9139 7.93323 19.0573C7.89696 19.1195 7.8607 19.2034 7.84954 19.2439C7.82165 19.3603 7.5985 19.5577 7.31677 19.7201C7.12151 19.8337 6.9681 19.9581 6.625 20.2881C6.37953 20.5208 6.08665 20.8211 5.96949 20.9536C5.59571 21.3865 4.89558 22.0736 4.81468 22.0898C4.77284 22.1006 4.68637 22.1466 4.61943 22.1953C4.43811 22.3306 4.32654 22.3766 4.1536 22.3928C4.06713 22.3982 3.94997 22.4226 3.89139 22.4442C3.74356 22.4983 3.56782 22.4929 3.47019 22.4307L3.3893 22.3766L3.18847 22.4848C2.98205 22.593 2.92626 22.6092 2.88163 22.5659ZM20.081 10.0137C20.042 9.98668 19.9946 9.96774 19.975 9.97586C19.9248 9.9948 20.0141 10.0624 20.0922 10.0624C20.1424 10.0651 20.1424 10.0597 20.081 10.0137ZM18.0699 8.30674C18.1061 8.2851 18.1034 8.27969 18.0587 8.27969C18.0308 8.27969 17.989 8.25805 17.9695 8.2337C17.936 8.18771 17.9332 8.19042 17.9304 8.24452C17.9304 8.29321 17.9583 8.32568 18.0141 8.33109C18.0225 8.33109 18.0476 8.32027 18.0699 8.30674ZM13.4116 8.17148C13.4339 8.15795 13.4451 8.13902 13.4339 8.1309C13.406 8.10385 13.2972 8.14443 13.314 8.17418C13.3363 8.20394 13.3586 8.20394 13.4116 8.17148ZM16.9067 8.00646C17.0434 7.97941 17.0629 7.96588 17.0713 7.90366C17.0797 7.83603 17.088 7.83333 17.2331 7.83333C17.3168 7.83603 17.4674 7.84415 17.5678 7.85497C17.7435 7.8712 17.7101 7.84956 17.5064 7.80627C17.4618 7.79816 17.4283 7.77922 17.4283 7.76299C17.4283 7.74405 17.4897 7.74135 17.6124 7.75488C17.7519 7.7684 17.7937 7.7657 17.7798 7.74135C17.7686 7.72241 17.7352 7.717 17.7073 7.72512C17.6794 7.73323 17.5873 7.72241 17.5036 7.69807C17.3558 7.65749 17.3474 7.65749 17.2331 7.7143C17.1354 7.7657 17.088 7.77111 16.9123 7.75758C16.7812 7.74946 16.6975 7.75488 16.678 7.77381C16.6557 7.79545 16.625 7.78734 16.5636 7.74405C16.4911 7.69266 16.4492 7.68454 16.2094 7.68725L15.936 7.68995L16.4046 7.77922C16.664 7.82792 16.8816 7.87661 16.89 7.88473C16.9207 7.91448 16.7812 7.90096 16.2847 7.83333C16.0169 7.79545 15.7603 7.7684 15.7128 7.7684C15.6682 7.77111 15.7324 7.78734 15.8607 7.80627C16.2038 7.85767 16.4799 7.9226 16.6055 7.98211C16.7449 8.04433 16.7198 8.04163 16.9067 8.00646Z" />
<path d="M14.2485 8.47188C14.2485 8.40695 14.2876 8.36096 14.3435 8.36096C14.4078 8.36096 14.4414 8.3799 14.4973 8.45023C14.5308 8.49352 14.5252 8.49622 14.391 8.49622C14.3128 8.49622 14.2485 8.4854 14.2485 8.47188Z" />
<path d="M11.6963 6.96771C11.78 6.90008 11.8748 6.86221 12.0394 6.83516C12.1454 6.81893 12.1537 6.84327 12.0673 6.91902C11.9641 7.00829 11.8887 7.03534 11.7465 7.03534L11.6126 7.03264L11.6963 6.96771Z" />
<path d="M19.3725 6.47808C19.3642 6.46996 19.3642 6.38069 19.3725 6.2806C19.3893 6.08041 19.3446 5.95868 19.1996 5.80989C19.1075 5.71791 18.611 5.47444 18.2819 5.36082C17.5399 5.10653 15.5622 4.90905 12.8481 4.81707C11.1689 4.76026 10.4186 4.71969 10.1396 4.66829C10.0336 4.64935 9.90255 4.63853 9.85513 4.64665C9.80492 4.65476 9.7575 4.64665 9.74634 4.63041C9.73518 4.61148 9.6515 4.60877 9.50645 4.61959C9.34746 4.63041 9.2833 4.62771 9.2833 4.60336C9.2833 4.58713 9.23867 4.5736 9.17451 4.5736C9.04899 4.5736 8.99878 4.53032 9.08804 4.49786C9.12988 4.48433 9.02668 4.45728 8.74774 4.4167C8.27912 4.34637 8.30701 4.34637 8.30701 4.39777C8.30701 4.41941 8.29585 4.43834 8.27912 4.43834C8.26517 4.43834 8.25122 4.42482 8.25122 4.40859C8.25122 4.38694 8.23728 4.38694 8.20938 4.41129C8.15917 4.45187 8.08386 4.42752 8.08386 4.37071C8.08386 4.31931 8.01412 4.29226 7.76308 4.25168C7.65708 4.23275 7.53993 4.21381 7.50645 4.20569C7.47019 4.20028 7.4423 4.20569 7.4423 4.22193C7.4423 4.23545 7.47577 4.24898 7.5204 4.24898C7.64035 4.24898 7.72124 4.27874 7.72124 4.32202C7.72124 4.35448 7.69334 4.35989 7.57619 4.34366C7.31399 4.30849 7.17731 4.26521 7.16894 4.21652C7.16336 4.18405 7.17731 4.16782 7.21078 4.16782C7.25262 4.16782 7.25541 4.16241 7.21915 4.14077C7.19683 4.12724 7.1522 4.11372 7.12431 4.11372C7.09362 4.11372 7.04899 4.09749 7.02668 4.07855C7.00157 4.05691 6.731 3.96493 6.42417 3.87295C4.97647 3.43471 4.43533 3.16148 3.90535 2.61232C3.7324 2.43378 3.50925 2.14432 3.50925 2.10104C3.50925 2.05775 3.59572 2.09292 3.62362 2.14702C3.66267 2.22007 3.82724 2.37156 3.98345 2.47706C4.04761 2.52034 4.13408 2.59609 4.17034 2.64478C4.20939 2.69348 4.25402 2.73406 4.26797 2.73406C4.28191 2.73406 4.36839 2.79087 4.46044 2.8585C4.64175 2.99376 5.03226 3.20206 5.07689 3.18853C5.09363 3.18312 5.05458 3.14254 4.99042 3.10197C4.8649 3.0154 4.67801 2.80169 4.37675 2.39861L4.17871 2.1335V2.27687C4.17592 2.40673 4.17313 2.41755 4.13966 2.37426C4.11734 2.34721 4.05876 2.20924 4.00855 2.06857C3.94161 1.88191 3.88582 1.77641 3.79656 1.67632C3.65988 1.51941 3.60967 1.43826 3.63199 1.41391C3.65988 1.38956 3.84677 1.57622 3.89698 1.67902C3.92208 1.73313 3.98345 1.8251 4.03366 1.88191L4.12292 1.99012V1.90085C4.12292 1.78453 4.15639 1.78994 4.45207 1.93331C4.90116 2.15243 5.21915 2.25253 5.51762 2.26605C5.6794 2.27417 5.90813 2.30934 6.10339 2.35533C6.5218 2.45812 6.97368 2.53387 7.4423 2.57986C7.82166 2.61773 8.21775 2.62314 8.27075 2.59068C8.2847 2.58256 8.47995 2.58527 8.70032 2.5988C9.45066 2.64478 9.71287 2.65561 9.69892 2.64208C9.68497 2.62855 8.21496 2.51764 8.05039 2.51764C7.98344 2.51764 7.97228 2.50952 7.99739 2.48247C8.02249 2.45271 8.15081 2.4473 8.65011 2.45812C9.06015 2.46624 9.30562 2.46083 9.36977 2.44189C9.46461 2.41214 9.89418 2.37426 10.6501 2.32827C10.9263 2.31204 11.1048 2.2877 11.2136 2.24982C11.353 2.20383 11.685 2.13891 12.1982 2.05775C12.5162 2.00635 12.5971 1.98201 12.7115 1.90085C12.8091 1.83051 12.8621 1.81428 12.9765 1.81428C13.0546 1.81158 13.1745 1.80076 13.2442 1.78723C13.3251 1.771 13.6654 1.78182 14.2205 1.81158C14.7087 1.84133 15.155 1.85216 15.2666 1.84133C15.579 1.81158 16.5804 1.85757 17.0462 1.92249C17.3753 1.96848 17.5371 2.00635 17.7631 2.09292C17.9248 2.15243 18.1368 2.22818 18.2373 2.26064C18.6529 2.39861 18.9569 2.59339 19.2916 2.93424C19.5762 3.22641 19.632 3.34273 19.8691 4.10019C20.0504 4.67911 20.0559 4.70616 20.0783 5.10112C20.1117 5.68815 20.0671 5.83153 19.7658 6.08853C19.6905 6.15075 19.632 6.22379 19.632 6.25354C19.632 6.40233 19.4534 6.55653 19.3725 6.47808Z" />
</svg>
